<svg style="position:absolute; z-index:-1; width:1px; height:1px;" xmlns="http://www.w3.org/2000/svg" width="0" height="0"><symbol viewBox="0 0 10 10" id="shape-close"><title>close</title><path d="M8.536.152L5 3.687 1.463.152C1.303-.008.735-.14.297.297-.14.735-.01 1.303.15 1.463L3.688 5 .15 8.536c-.16.16-.29.73.147 1.167.438.437 1.006.307 1.166.145L5 6.312l3.536 3.536c.16.162.73.292 1.167-.145.437-.438.307-1.006.145-1.167L6.312 5l3.536-3.537c.162-.16.292-.728-.145-1.166C9.265-.14 8.697-.01 8.536.152z" fill-rule="evenodd"/></symbol><symbol viewBox="0 0 5 5" id="shape-dvd"><title>dvd</title><path d="M3.853 3.243c-.862.496-1.72.997-2.577 1.503C.42 5.25-.006 5.003 0 4.002.006 3.002.006 2 0 .998c-.006-1 .42-1.25 1.276-.744C2.132.76 2.99 1.26 3.853 1.757c.863.496.863.99 0 1.486z" fill-rule="evenodd"/></symbol><symbol viewBox="0 0 39 25" id="shape-more"><title>more</title><path fill-rule="evenodd" d="M38.294 12.833l-.304-.308v.272l.37.374L26.672 25l-.69-.697L37.153 13H0v-1h37.47L26.32.714 27.024 0 39 12.12"/></symbol><symbol viewBox="0 0 15 42" id="shape-next-lg"><title>next-lg</title><path d="M0 .582L.807 0l13.798 20.28-.808.582L0 .582zm15 20.56L1.374 41l-.796-.57 13.625-19.858.797.57z" fill-rule="evenodd"/></symbol><symbol viewBox="0 0 13 25" id="shape-next"><title>next</title><path d="M12.295 12.833L.335.713 1.038 0 13 12.12l-.705.713zm.066.34L.69 25 0 24.304l11.673-11.828.688.696z" fill-rule="evenodd"/></symbol><symbol viewBox="0 0 15 41" id="shape-prev-lg"><title>prev-lg</title><path d="M1.203 20.862l-.807-.58L14.193 0 15 .58 1.203 20.863zm13.22 19.57l-.798.568L0 21.14l.798-.568 13.625 19.86z" fill-rule="evenodd"/></symbol><symbol viewBox="0 0 14 25" id="shape-prev"><title>prev</title><path d="M0 12.12L11.96 0l.705.714-11.96 12.12L0 12.12zm13 12.183l-.69.697L.64 13.172l.69-.697L13 24.303z" fill-rule="evenodd"/></symbol></svg>